<svg width="33" height="33" viewBox="0 0 33 33" fill="none" xmlns="http://www.w3.org/2000/svg">
<path d="M24.625 0.25H8.375C3.88769 0.25 0.25 3.88769 0.25 8.375V24.625C0.25 29.1123 3.88769 32.75 8.375 32.75H24.625C29.1123 32.75 32.75 29.1123 32.75 24.625V8.375C32.75 3.88769 29.1123 0.25 24.625 0.25Z" fill="#FA4A0C"/>
<path d="M23 15.4763C23.2006 16.8287 22.9696 18.2099 22.3399 19.4234C21.7102 20.6369 20.7139 21.621 19.4927 22.2357C18.2714 22.8504 16.8875 23.0643 15.5377 22.8471C14.1878 22.6299 12.9409 21.9926 11.9741 21.0259C11.0074 20.0591 10.3701 18.8122 10.1529 17.4623C9.93567 16.1125 10.1496 14.7286 10.7643 13.5074C11.379 12.2861 12.3631 11.2898 13.5766 10.6601C14.7902 10.0305 16.1714 9.79946 17.5238 10C18.9033 10.2046 20.1804 10.8474 21.1665 11.8335C22.1526 12.8196 22.7955 14.0968 23 15.4763Z" stroke="white" stroke-width="2" stroke-linecap="round" stroke-linejoin="round"/>
<path d="M25.4375 7.5625H25.4537" stroke="white" stroke-width="2" stroke-linecap="round" stroke-linejoin="round"/>
</svg>
